<svg width="249" height="570" viewBox="0 0 249 570" fill="none" xmlns="http://www.w3.org/2000/svg">
<g filter="url(#filter0_d)">
<path d="M38.0001 136.958L33.0001 136.958C33.0001 134.197 35.2387 131.958 38.0001 131.958L38.0001 136.958ZM41.5356 560.536C39.5829 562.488 36.4171 562.488 34.4645 560.536L2.6447 528.716C0.692081 526.763 0.692081 523.597 2.6447 521.645C4.59732 519.692 7.76315 519.692 9.71577 521.645L38 549.929L66.2843 521.645C68.2369 519.692 71.4028 519.692 73.3554 521.645C75.308 523.597 75.308 526.763 73.3554 528.716L41.5356 560.536ZM237 136.958L242 136.958C242 139.72 239.761 141.958 237 141.958L237 136.958ZM43.0001 136.958L43 557L33 557L33.0001 136.958L43.0001 136.958ZM38.0001 131.958L237 131.958L237 141.958L38.0001 141.958L38.0001 131.958ZM232 136.958L232 0.500008L242 0.500009L242 136.958L232 136.958Z" fill="#13D2B7"/>
</g>
<defs>
<filter id="filter0_d" x="0.180237" y="0.5" width="248.82" height="569.5" filterUnits="userSpaceOnUse" color-interpolation-filters="sRGB">
<feFlood flood-opacity="0" result="BackgroundImageFix"/>
<feColorMatrix in="SourceAlpha" type="matrix" values="0 0 0 0 0 0 0 0 0 0 0 0 0 0 0 0 0 0 127 0" result="hardAlpha"/>
<feOffset dx="3" dy="4"/>
<feGaussianBlur stdDeviation="2"/>
<feColorMatrix type="matrix" values="0 0 0 0 0 0 0 0 0 0 0 0 0 0 0 0 0 0 0.5 0"/>
<feBlend mode="normal" in2="BackgroundImageFix" result="effect1_dropShadow"/>
<feBlend mode="normal" in="SourceGraphic" in2="effect1_dropShadow" result="shape"/>
</filter>
</defs>
</svg>
